<svg xmlns="http://www.w3.org/2000/svg" viewBox="0 0 500 500">
  <path fill="#13b6e2" d="M130.25 193.34c-25.2 0-36.9-9.75-36.9-30.6v-46.65c0-21 11.7-30.75 36.9-30.75h36.6c3.75 0 5.4 1.65 5.4 5.4v18.15c0 3.75-1.65 5.4-5.4 5.4H136.7c-6.3 0-9.15 2.4-9.15 7.5v35.7c0 4.95 2.85 7.2 9.15 7.2h30.15c3.75 0 5.4 1.65 5.4 5.4v17.85c0 3.75-1.65 5.4-5.4 5.4h-36.6zm86.15 0h-22.05c-3.75 0-5.4-1.65-5.4-5.4v-39.6c0-6 1.8-13.5 5.85-24l13.05-34.05c1.2-3.45 3.6-4.95 7.65-4.95h40.35c3.9 0 6.3 1.5 7.5 4.95l13.05 34.05c4.05 10.5 5.85 18 5.85 24v39.6c0 3.75-1.65 5.4-5.4 5.4H254.2c-4.05 0-5.85-1.65-5.85-5.4v-21H221.8v21c0 3.75-1.65 5.4-5.4 5.4zm6.9-53.7h23.55l-7.05-22.8c-.75-1.8-1.65-2.55-2.85-2.55h-3.75c-1.2 0-2.1.75-2.85 2.55l-7.05 22.8zm81.35 53.7c-3.75 0-5.4-1.65-5.4-5.4v-20.1c0-3.9 1.05-6.45 3.75-9.3l36.45-44.25h-32.1c-3.75 0-5.4-1.65-5.4-5.4V90.74c0-3.75 1.65-5.4 5.4-5.4h69c3.75 0 5.4 1.65 5.4 5.4v22.35c0 4.05-1.05 6.6-3.75 9.45l-34.8 42.15h35.85c3.75 0 5.4 1.65 5.4 5.4v17.85c0 3.75-1.65 5.4-5.4 5.4h-74.4zM57.61 358c-1.52 0-2.65-.48-3.37-1.45-.72-.97-1.08-2.41-1.08-4.34 0-1.92.81-7.38 2.44-16.36l-2.05-4.14c2.92-1.88 5.58-2.83 7.98-2.83 1.52 0 2.46.72 2.83 2.17 2.92-.08 6.56-.74 10.92-1.97.21.85.31 1.69.31 2.52 0 2.09-.69 3.67-2.07 4.72-1.38 1.06-3.16 1.59-5.32 1.59-1.47 0-2.92-.31-4.34-.93-.21 1.16-.57 3.06-1.08 5.69.95.18 1.77.27 2.44.27 1.06-.21 2.22-.5 3.49-.89.13.44.19 1.16.19 2.15s-.4 1.79-1.2 2.38c-.8.59-1.7.89-2.69.89s-2.01-.12-3.04-.35c-.28 1.63-.43 3.16-.43 4.61h6.27c1.96-.28 3.94-.79 5.92-1.51.16.47.23 1.1.23 1.9 0 1.52-.45 2.88-1.34 4.07s-2.12 1.78-3.7 1.78c-.83 0-2.03-.16-3.62-.48-1.59-.32-2.77-.52-3.54-.6-1.24.74-2.62 1.11-4.15 1.11zm33.23-29.08c3.41 0 5.96.39 7.67 1.18 1.7.79 2.56 2.04 2.56 3.76 0 1.72-.52 3.02-1.57 3.91-1.05.89-2.24 1.34-3.58 1.34-1.34 0-2.55-.34-3.62-1.03-1.07-.68-1.81-1.59-2.23-2.73-.95 0-1.87.32-2.73.95-.87.63-1.41 1.45-1.65 2.46 5.11 1.24 8.78 2.68 11 4.34 2.22 1.65 3.33 3.77 3.33 6.35 0 2.58-1.17 4.65-3.5 6.19-2.34 1.55-5.49 2.32-9.45 2.32-3.96 0-6.77-.54-8.42-1.63-1.65-1.08-2.48-2.52-2.48-4.3 0-1.78.55-3.42 1.66-4.92.54 1.16 1.58 2.21 3.12 3.14 1.54.93 3.05 1.39 4.55 1.39 2.76 0 4.52-.88 5.27-2.63-4.29-.57-7.55-1.76-9.8-3.58-2.25-1.82-3.37-4.02-3.37-6.6 0-1.73.47-3.27 1.39-4.63a9.374 9.374 0 0 1 3.56-3.12c2.84-1.44 5.6-2.16 8.29-2.16zm11.11 6.7c0-2.09.54-3.67 1.63-4.72 1.08-1.06 2.38-1.59 3.89-1.59 1.51 0 3.57.26 6.18.77 2.61.52 4.57.79 5.89.81 2.19-.41 4.29-.92 6.27-1.51.21.67.31 1.51.31 2.52 0 2.09-.6 3.67-1.8 4.72-1.2 1.06-2.73 1.59-4.59 1.59-.46 0-1.08-.02-1.86-.08-1.42 7.46-2.13 11.63-2.13 12.51 0 2.5.39 4.38 1.16 5.61-1.55 1.16-3.16 1.74-4.84 1.74s-2.88-.48-3.6-1.45c-.72-.97-1.08-2.41-1.08-4.34 0-1.92.75-7.05 2.25-15.39-2.92.39-5.37.83-7.36 1.32-.22-.64-.32-1.48-.32-2.51zm28.73 22.34c-1.27 0-2.29-.39-3.08-1.18-.79-.79-1.18-1.79-1.18-3.02s.48-2.33 1.43-3.31 2.06-1.47 3.33-1.47c1.26 0 2.29.39 3.08 1.18.79.79 1.18 1.79 1.18 3.02s-.48 2.33-1.43 3.31-2.06 1.47-3.33 1.47zm141.25-30.43l-16.69 3.12c-2.02-.13-3.45-1.56-3.21-3.2l1.61-37.18c.54-1.53-.53-3.05-2.39-3.4-1.86-.35-3.8.6-4.34 2.12l-38.02 69.55c-.99 1.59-.25 3.46 1.67 4.18.38.14.79.23 1.21.27l18.51-6.23c1.99.13 3.41 1.53 3.2 3.16l-3.32 40.27c-.26 1.55 1.08 2.92 2.99 3.04 1.51.1 2.98-.61 3.63-1.75l38.02-69.55c.96-1.6.18-3.46-1.75-4.15-.35-.14-.73-.22-1.12-.25zM342.34 355.79c-1.7 1.32-3.28 1.97-4.72 1.97-1.45 0-2.52-.43-3.21-1.28-.7-.85-1.05-1.96-1.05-3.31s.56-2.61 1.68-3.76c1.12-1.15 2.64-1.72 4.55-1.72.59 0 1.17.06 1.74.19 2.19-1.86 3.83-3.47 4.92-4.84 1.08-1.37 1.63-2.56 1.63-3.58s-.28-1.8-.83-2.34c-.56-.54-1.3-.81-2.23-.81-1.52 0-2.74.71-3.64 2.13-.44.65-.83 1.46-1.16 2.44-1.16-.13-2.04-.53-2.63-1.2-.59-.67-.89-1.51-.89-2.52 0-1.94.94-3.63 2.81-5.07 1.87-1.45 4.72-2.17 8.54-2.17 3.12 0 5.46.74 7.03 2.23 1.56 1.49 2.34 3.19 2.34 5.13 0 3.43-3.06 7.55-9.18 12.35 2.22.36 3.96.54 5.23.54l4.53-1.74c.28 1.19.43 2.27.43 3.25 0 2.12-.58 3.7-1.74 4.74-1.16 1.05-2.57 1.57-4.22 1.57s-3.18-.17-4.59-.52c-1.42-.34-3.2-.9-5.34-1.68zm20.37-10.18c0-4.7 1.42-8.49 4.26-11.37 2.84-2.88 6.55-4.32 11.11-4.32 1.32 0 2.36.19 3.14.58.23.26.39.88.47 1.86 2.09.49 3.63 1.61 4.63 3.37.99 1.76 1.49 3.95 1.49 6.58 0 4.57-1.36 8.33-4.09 11.27-2.72 2.94-5.9 4.41-9.54 4.41s-6.46-1.14-8.46-3.41c-2.01-2.26-3.01-5.25-3.01-8.97zm8.61 5.13c.68 1.18 1.71 1.76 3.08 1.76s2.63-1.05 3.77-3.16c1.15-2.1 1.72-4.45 1.72-7.03 0-3.72-1.55-5.58-4.65-5.58-.49 0-1.1.06-1.82.19-2.09 2.71-3.14 5.8-3.14 9.25.02 1.88.36 3.4 1.04 4.57zm28.06 5.05c-1.7 1.32-3.28 1.97-4.72 1.97-1.45 0-2.52-.43-3.21-1.28-.7-.85-1.05-1.96-1.05-3.31s.56-2.61 1.68-3.76c1.12-1.15 2.64-1.72 4.55-1.72.59 0 1.17.06 1.74.19 2.19-1.86 3.83-3.47 4.92-4.84 1.08-1.37 1.63-2.56 1.63-3.58s-.28-1.8-.83-2.34c-.56-.54-1.3-.81-2.23-.81-1.52 0-2.74.71-3.64 2.13-.44.65-.83 1.46-1.16 2.44-1.16-.13-2.04-.53-2.63-1.2-.59-.67-.89-1.51-.89-2.52 0-1.94.94-3.63 2.81-5.07 1.87-1.45 4.72-2.17 8.54-2.17 3.12 0 5.46.74 7.03 2.23 1.56 1.49 2.34 3.19 2.34 5.13 0 3.43-3.06 7.55-9.18 12.35 2.22.36 3.96.54 5.23.54l4.53-1.74c.28 1.19.43 2.27.43 3.25 0 2.12-.58 3.7-1.74 4.74-1.16 1.05-2.57 1.57-4.22 1.57s-3.18-.17-4.59-.52c-1.42-.34-3.2-.9-5.34-1.68zm20.37-10.18c0-4.7 1.42-8.49 4.26-11.37 2.84-2.88 6.55-4.32 11.11-4.32 1.32 0 2.36.19 3.14.58.23.26.39.88.47 1.86 2.09.49 3.63 1.61 4.63 3.37.99 1.76 1.49 3.95 1.49 6.58 0 4.57-1.36 8.33-4.09 11.27-2.72 2.94-5.9 4.41-9.54 4.41-3.64 0-6.46-1.14-8.46-3.41-2.01-2.26-3.01-5.25-3.01-8.97zm8.61 5.13c.68 1.18 1.71 1.76 3.08 1.76s2.63-1.05 3.77-3.16c1.15-2.1 1.72-4.45 1.72-7.03 0-3.72-1.55-5.58-4.65-5.58-.49 0-1.1.06-1.82.19-2.09 2.71-3.14 5.8-3.14 9.25.02 1.88.36 3.4 1.04 4.57z"/>
</svg>
